<?xml version="1.0" encoding="UTF-8"?>
<!-- Generator: Adobe Illustrator 24.0.0, SVG Export Plug-In . SVG Version: 6.00 Build 0)  -->
<svg xmlns="http://www.w3.org/2000/svg" xmlns:xlink="http://www.w3.org/1999/xlink" version="1.1" id="Layer_1" x="0px" y="0px" viewBox="0 0 544.57 55.57" style="enable-background:new 0 0 544.57 55.57;" xml:space="preserve">
<style type="text/css">
	.st0{fill:#FFFFFF;}
</style>
<g>
	
		<rect x="255.57" y="9.39" transform="matrix(0.7071 -0.7071 0.7071 0.7071 60.5939 201.8579)" class="st0" width="36.79" height="36.79"></rect>
	<path class="st0" d="M521.71,17.42c-7.43,4.46-14.36,7.07-19.31,8.57H448.4l-6.78-6.78l-6.78,6.78H313.21v3.6h121.63l6.78,6.78   l6.78-6.78h54.02c4.95,1.49,11.88,4.11,19.3,8.56c0,0,13.49-8.63,21.58-10.36C535.2,26.05,521.71,17.42,521.71,17.42z"></path>
	<path class="st0" d="M102.95,19.21l-6.78,6.78H42.17c-4.95-1.49-11.88-4.11-19.31-8.57c0,0-13.49,8.63-21.58,10.36   c8.09,1.73,21.58,10.36,21.58,10.36c7.43-4.46,14.35-7.07,19.3-8.56h54.02l6.78,6.78l6.78-6.78h121.63v-3.6H109.73L102.95,19.21z"></path>
</g>
</svg>
